<svg xmlns="http://www.w3.org/2000/svg" viewBox="0 0 268.12 109.43"><defs><style>.cls-1{fill:#909091;stroke-width:3.11px;}.cls-1,.cls-2{stroke:#fff;}.cls-1,.cls-2,.cls-3{stroke-miterlimit:10;}.cls-2{fill:#dde2e8;stroke-width:3px;}.cls-3{fill:none;stroke:#aaa;stroke-linecap:round;stroke-width:8px;}.cls-4{fill:#69f;}.cls-5{fill:#fff;}.cls-6{fill:#303030;}</style></defs><title>Middel 9</title><g id="Laag_2" data-name="Laag 2"><g id="Laag_2-2" data-name="Laag 2"><ellipse class="cls-1" cx="183.13" cy="53.19" rx="84.44" ry="28.5" transform="matrix(0.99, -0.16, 0.16, 0.99, -6.23, 30.64)"/><ellipse class="cls-2" cx="181.36" cy="41.66" rx="83.5" ry="28.5" transform="translate(-4.37 30.19) rotate(-9.4)"/><polyline class="cls-3" points="55.76 64.09 108.76 35.09 152.76 30.09"/><polyline class="cls-3" points="163.41 91.04 103.13 95.09 61.1 81.14"/><path class="cls-4" d="M25.92,107.43a24,24,0,0,1-23-17.49A24,24,0,0,1,19.5,60.54l32.43-9a7.26,7.26,0,0,1,2-.27,7.43,7.43,0,0,1,7.15,5.43l8.81,31.73a7.42,7.42,0,0,1-5.17,9.12l-32.43,9a23.48,23.48,0,0,1-6.34.87Z"/><path class="cls-5" d="M53.9,53.28a5.44,5.44,0,0,1,5.23,4L67.93,89a5.44,5.44,0,0,1-3.77,6.67l-32.43,9a21.64,21.64,0,0,1-5.81.8,21.88,21.88,0,0,1-5.89-43l32.43-9a5.48,5.48,0,0,1,1.44-.19m0-4a9.26,9.26,0,0,0-2.51.34L19,58.62A25.88,25.88,0,0,0,32.8,108.49l32.43-9A9.43,9.43,0,0,0,71.78,87.9L63,56.17a9.44,9.44,0,0,0-9.08-6.89Z"/><path class="cls-6" d="M186.34,25l37.55,3.12v-6l-4.08.22c-3.84.2-3.86,6.2,0,6l4.08-.22a3,3,0,0,0,0-6L186.34,19c-3.85-.32-3.82,5.68,0,6Z"/><path class="cls-6" d="M203.76,3.18,200.14,43c-.38,4.24,6.25,4.22,6.63,0l3.62-39.85c.39-4.25-6.25-4.23-6.63,0Z"/><path class="cls-6" d="M193.58,100.81l30,3.52c3.83.45,3.8-5.55,0-6l-30-3.52c-3.82-.45-3.79,5.56,0,6Z"/></g></g></svg>